<svg width="128" height="128" viewBox="0 0 128 128" fill="none" xmlns="http://www.w3.org/2000/svg">
<rect width="128" height="128" rx="64" fill="url(#paint0_linear_6_6)"/>
<path d="M39.9824 81.2061C39.39 81.2061 38.9668 81.1849 38.7129 81.1426C37.528 80.3385 36.5758 79.1536 35.8564 77.5879C35.1794 76.0221 34.8408 74.266 34.8408 72.3193C34.8408 70.3304 35.666 68.8493 37.3164 67.876C39.0091 66.8604 42.0983 66.3525 46.584 66.3525C48.2344 66.3525 49.9906 66.4583 51.8525 66.6699L51.7256 65.5273C51.5986 64.1309 50.9427 63.0306 49.7578 62.2266C48.5729 61.4225 47.0495 61.0205 45.1875 61.0205C43.3678 61.0205 41.5482 61.5918 39.7285 62.7344L37.4434 55.2441C40.4056 54.0169 43.791 53.4033 47.5996 53.4033C51.4082 53.4033 54.4128 54.2708 56.6133 56.0059C58.8561 57.6986 59.9775 60.3646 59.9775 64.0039C59.9775 64.8503 59.9352 65.5062 59.8506 65.9717L58.4541 80.3174L53.249 80.7617L52.4873 73.2715H52.1064C50.9215 75.7682 49.2712 77.7148 47.1553 79.1113C45.0817 80.5078 42.6908 81.2061 39.9824 81.2061ZM52.043 68.8916L49.3135 68.8281C47.0283 68.8281 45.1452 68.9551 43.6641 69.209C43.1986 70.1823 42.9658 71.0498 42.9658 71.8115C42.9658 72.5732 43.0505 73.3138 43.2197 74.0332C43.4313 74.7103 43.6641 75.1546 43.918 75.3662C48.0651 74.7314 50.7734 72.5732 52.043 68.8916ZM65.1826 46.1035L91.7158 45.4053L91.5889 48.8965L84.2891 49.6582L81.0518 80.1904L75.4023 80.6982L72.7363 50.8008L65.5 51.499L65.1826 46.1035Z" fill="white"/>
<defs>
<linearGradient id="paint0_linear_6_6" x1="76" y1="-52" x2="76" y2="-108" gradientUnits="userSpaceOnUse">
<stop stop-color="#FF9A9E"/>
<stop offset="1" stop-color="#FAD0C4" stop-opacity="0"/>
</linearGradient>
</defs>
</svg>
